<svg width="32" height="32" viewBox="0 0 32 32" fill="none" xmlns="http://www.w3.org/2000/svg">
<path fill-rule="evenodd" clip-rule="evenodd" d="M21.776 22.65C20.192 24.2167 18.2667 25 16 25C16.1013 22.8 16.96 20.9167 18.576 19.35C20.192 17.7833 22.1333 17 24.4 17C24.2347 19.2 23.36 21.0833 21.776 22.65ZM16 25C13.7347 25 11.81 24.2167 10.226 22.65C8.642 21.0833 7.76667 19.2 7.6 17C9.868 17 11.81 17.7833 13.426 19.35C15.042 20.9167 15.9 22.8 16 25ZM17.426 18.424C17.042 18.808 16.5667 19 16 19H16.002C15.4367 19.0013 14.962 18.81 14.578 18.426C14.194 18.042 14.002 17.5667 14.002 17V16.5L13.502 16.7C13.0033 16.9 12.4953 16.95 11.978 16.85C11.4607 16.75 11.0687 16.4667 10.802 16C10.502 15.5 10.402 14.9667 10.502 14.4C10.602 13.8333 10.9353 13.4333 11.502 13.2L12.002 13L11.502 12.8C10.9367 12.568 10.612 12.16 10.528 11.576C10.444 10.992 10.5353 10.4667 10.802 10C11.102 9.49867 11.502 9.20667 12.002 9.124C12.502 9.04133 13.002 9.1 13.502 9.3L14.002 9.5V9C14.0007 8.436 14.1927 7.96133 14.578 7.576C14.9633 7.19067 15.438 6.99867 16.002 7C16.566 7.00133 17.04 7.19333 17.424 7.576C17.808 7.95867 18 8.43333 18 9V9.5L18.5 9.3C19 9.10133 19.5 9.04333 20 9.126C20.5 9.20867 20.9 9.5 21.2 10C21.468 10.4653 21.56 10.99 21.476 11.574C21.392 12.158 21.0667 12.5667 20.5 12.8L20 13L20.5 13.2C21.0667 13.4333 21.4 13.8333 21.5 14.4C21.6 14.9667 21.5 15.5 21.2 16C20.9347 16.4667 20.5433 16.75 20.026 16.85C19.5087 16.95 19 16.9 18.5 16.7L18 16.5V17C18.0013 17.5653 17.81 18.04 17.426 18.424ZM14.578 14.424C14.9607 14.808 15.4353 15 16.002 15H16C16.5707 15.0027 17.0453 14.8113 17.424 14.426C17.8027 14.0407 17.9947 13.5653 18 13C18.0053 12.4347 17.814 11.96 17.426 11.576C17.038 11.192 16.5627 11 16 11C15.4373 11 14.9627 11.192 14.576 11.576C14.1893 11.96 13.9973 12.4347 14 13C14.0027 13.5653 14.1953 14.04 14.578 14.424ZM2.176 29.826C2.95867 30.6087 3.9 31 5 31H27C28.1013 31.0013 29.0433 30.61 29.826 29.826C30.6087 29.042 31 28.1 31 27V5C31.0013 3.90133 30.61 2.96 29.826 2.176C29.042 1.392 28.1 1 27 1H5C3.90133 1.00133 2.96 1.39333 2.176 2.176C1.392 2.95867 1 3.9 1 5V27C1.00133 28.1013 1.39333 29.0433 2.176 29.826Z" fill="#FFD41D"/>
</svg>
